<svg width="128" height="40" xmlns="http://www.w3.org/2000/svg">

 <g>
  <title>background</title>
  <rect fill="none" id="canvas_background" height="42" width="130" y="-1" x="-1"/>
 </g>
 <g>
  <title>Layer 1</title>
  <g id="svg_1">
   <path id="svg_2" d="m123.791837,40l-120,0c-2.2,0 -4,-1.8 -4,-4l0,-32c0,-2.2 1.8,-4 4,-4l120,0c2.2,0 4,1.8 4,4l0,32c0,2.2 -1.8,4 -4,4z"/>
   <path id="svg_3" d="m26.791837,19.8c0,-3.1 2.6,-4.6 2.7,-4.7c-1.5,-2.1 -3.7,-2.4 -4.5,-2.5c-1.9,-0.2 -3.8,1.1 -4.7,1.1c-1,0 -2.5,-1.1 -4.1,-1.1c-2.1,0 -4,1.2 -5.1,3.1c-2.2,3.8 -0.6,9.4 1.5,12.5c1.1,1.5 2.3,3.2 3.9,3.1c1.6,-0.1 2.2,-1 4.1,-1c1.9,0 2.4,1 4.1,1c1.7,0 2.8,-1.5 3.8,-3c1.2,-1.7 1.7,-3.4 1.7,-3.5c-0.1,-0.1 -3.4,-1.3 -3.4,-5z" fill="#FFFFFF"/>
   <path id="svg_4" d="m23.691837,10.6c0.8,-1.1 1.4,-2.5 1.3,-4c-1.2,0.1 -2.8,0.8 -3.6,1.9c-0.8,0.9 -1.5,2.4 -1.3,3.8c1.3,0.1 2.7,-0.7 3.6,-1.7z" fill="#FFFFFF"/>
   <path id="svg_5" d="m49.591837,31.1l-2.2,0l-1.2,-3.8l-4.2,0l-1.1,3.8l-2.1,0l4.2,-12.9l2.6,0l4,12.9zm-3.8,-5.4l-1.1,-3.4c-0.1,-0.3 -0.3,-1.2 -0.7,-2.4l0,0c-0.1,0.5 -0.3,1.4 -0.6,2.4l-1.1,3.4l3.5,0z" fill="#FFFFFF"/>
   <path id="svg_6" d="m60.291837,26.4c0,1.6 -0.4,2.8 -1.3,3.8c-0.8,0.8 -1.7,1.2 -2.9,1.2c-1.2,0 -2.1,-0.4 -2.6,-1.3l0,0l0,4.9l-2.1,0l0,-10c0,-1 0,-2 -0.1,-3.1l1.8,0l0.1,1.5l0,0c0.7,-1.1 1.7,-1.7 3.1,-1.7c1.1,0 2,0.4 2.7,1.3c0.9,0.8 1.3,1.9 1.3,3.4zm-2.1,0c0,-0.9 -0.2,-1.7 -0.6,-2.2c-0.4,-0.6 -1,-0.9 -1.8,-0.9c-0.5,0 -1,0.2 -1.4,0.5c-0.4,0.3 -0.7,0.8 -0.8,1.3c-0.1,0.3 -0.1,0.5 -0.1,0.6l0,1.6c0,0.7 0.2,1.2 0.6,1.7c0.4,0.5 1,0.7 1.6,0.7c0.8,0 1.4,-0.3 1.8,-0.9c0.5,-0.6 0.7,-1.4 0.7,-2.4z" fill="#FFFFFF"/>
   <path id="svg_7" d="m70.991837,26.4c0,1.6 -0.4,2.8 -1.3,3.8c-0.8,0.8 -1.7,1.2 -2.9,1.2c-1.2,0 -2.1,-0.4 -2.6,-1.3l0,0l0,4.9l-2.1,0l0,-10c0,-1 0,-2 -0.1,-3.1l1.8,0l0.1,1.5l0,0c0.7,-1.1 1.7,-1.7 3.1,-1.7c1.1,0 2,0.4 2.7,1.3c0.9,0.8 1.3,1.9 1.3,3.4zm-2.1,0c0,-0.9 -0.2,-1.7 -0.6,-2.2c-0.4,-0.6 -1,-0.9 -1.8,-0.9c-0.5,0 -1,0.2 -1.4,0.5c-0.4,0.3 -0.7,0.8 -0.8,1.3c-0.1,0.3 -0.1,0.5 -0.1,0.6l0,1.6c0,0.7 0.2,1.2 0.6,1.7c0.4,0.5 1,0.7 1.6,0.7c0.8,0 1.4,-0.3 1.8,-0.9c0.5,-0.6 0.7,-1.4 0.7,-2.4z" fill="#FFFFFF"/>
   <path id="svg_8" d="m82.991837,27.5c0,1.1 -0.4,2 -1.1,2.7c-0.8,0.8 -2,1.1 -3.5,1.1c-1.4,0 -2.5,-0.3 -3.3,-0.8l0.5,-1.7c0.9,0.5 1.9,0.8 3,0.8c0.8,0 1.4,-0.2 1.8,-0.5c0.4,-0.4 0.6,-0.8 0.6,-1.4c0,-0.5 -0.2,-1 -0.5,-1.3c-0.4,-0.4 -1,-0.7 -1.8,-1c-2.3,-0.8 -3.4,-2.1 -3.4,-3.7c0,-1.1 0.4,-1.9 1.2,-2.6c0.8,-0.7 1.8,-1 3.2,-1c1.2,0 2.1,0.2 2.9,0.6l-0.5,1.7c-0.7,-0.4 -1.5,-0.6 -2.5,-0.6c-0.7,0 -1.3,0.2 -1.7,0.5c-0.3,0.3 -0.5,0.7 -0.5,1.2c0,0.5 0.2,0.9 0.6,1.3c0.3,0.3 1,0.6 1.9,1c1.1,0.4 1.9,1 2.5,1.6c0.3,0.5 0.6,1.2 0.6,2.1z" fill="#FFFFFF"/>
   <path id="svg_9" d="m89.791837,23.4l-2.3,0l0,4.5c0,1.1 0.4,1.7 1.2,1.7c0.4,0 0.7,0 0.9,-0.1l0.1,1.6c-0.4,0.2 -0.9,0.2 -1.6,0.2c-0.8,0 -1.5,-0.2 -1.9,-0.7c-0.5,-0.5 -0.7,-1.3 -0.7,-2.5l0,-4.7l-1.4,0l0,-1.6l1.4,0l0,-1.7l2,-0.6l0,2.3l2.3,0l0,1.6z" fill="#FFFFFF"/>
   <path id="svg_10" d="m100.091837,26.4c0,1.4 -0.4,2.6 -1.2,3.5c-0.9,0.9 -2,1.4 -3.4,1.4c-1.4,0 -2.5,-0.5 -3.3,-1.4c-0.8,-0.9 -1.2,-2 -1.2,-3.4c0,-1.4 0.4,-2.6 1.3,-3.5c0.8,-0.9 2,-1.4 3.4,-1.4c1.4,0 2.5,0.5 3.3,1.4c0.7,0.9 1.1,2 1.1,3.4zm-2.2,0.1c0,-0.9 -0.2,-1.6 -0.6,-2.2c-0.4,-0.7 -1.1,-1.1 -1.9,-1.1c-0.8,0 -1.5,0.4 -1.9,1.1c-0.4,0.6 -0.6,1.4 -0.6,2.2c0,0.9 0.2,1.6 0.6,2.2c0.4,0.7 1.1,1.1 1.9,1.1c0.8,0 1.4,-0.4 1.9,-1.1c0.4,-0.6 0.6,-1.4 0.6,-2.2z" fill="#FFFFFF"/>
   <path id="svg_11" d="m106.791837,23.6c-0.2,0 -0.4,-0.1 -0.7,-0.1c-0.7,0 -1.3,0.3 -1.7,0.8c-0.3,0.5 -0.5,1.1 -0.5,1.8l0,4.9l-2.1,0l0,-6.4c0,-1.1 0,-2 -0.1,-2.9l1.8,0l0.1,1.8l0.1,0c0.2,-0.6 0.6,-1.1 1,-1.5c0.5,-0.3 1,-0.5 1.5,-0.5c0.2,0 0.4,0 0.5,0l0,2.1l0.1,0z" fill="#FFFFFF"/>
   <path id="svg_12" d="m115.991837,26c0,0.4 0,0.7 -0.1,0.9l-6.2,0c0,0.9 0.3,1.6 0.9,2.1c0.5,0.4 1.2,0.7 2,0.7c0.9,0 1.8,-0.1 2.5,-0.4l0.3,1.4c-0.9,0.4 -1.9,0.6 -3.1,0.6c-1.4,0 -2.6,-0.4 -3.4,-1.3c-0.8,-0.8 -1.2,-2 -1.2,-3.4c0,-1.4 0.4,-2.6 1.1,-3.5c0.8,-1 1.9,-1.5 3.3,-1.5c1.3,0 2.4,0.5 3,1.5c0.7,0.8 0.9,1.8 0.9,2.9zm-1.9,-0.5c0,-0.6 -0.1,-1.1 -0.4,-1.6c-0.4,-0.6 -0.9,-0.9 -1.6,-0.9c-0.7,0 -1.2,0.3 -1.6,0.8c-0.3,0.4 -0.5,1 -0.6,1.6l4.2,0l0,0.1z" fill="#FFFFFF"/>
   <path id="svg_13" d="m45.191837,10.3c0,1.1 -0.3,2 -1,2.6c-0.6,0.5 -1.5,0.8 -2.7,0.8c-0.6,0 -1.1,0 -1.5,-0.1l0,-6.2c0.5,-0.1 1.1,-0.1 1.8,-0.1c1.1,0 1.9,0.2 2.5,0.7c0.5,0.5 0.9,1.3 0.9,2.3zm-1.1,0c0,-0.7 -0.2,-1.3 -0.6,-1.7c-0.4,-0.4 -1,-0.6 -1.7,-0.6c-0.3,0 -0.6,0 -0.8,0.1l0,4.7c0.1,0 0.4,0 0.7,0c0.8,0 1.4,-0.2 1.8,-0.6c0.4,-0.4 0.6,-1.1 0.6,-1.9z" fill="#FFFFFF"/>
   <path id="svg_14" d="m50.791837,11.3c0,0.7 -0.2,1.3 -0.6,1.7c-0.4,0.5 -1,0.7 -1.7,0.7c-0.7,0 -1.2,-0.2 -1.6,-0.7c-0.4,-0.4 -0.6,-1 -0.6,-1.7c0,-0.7 0.2,-1.3 0.6,-1.7c0.4,-0.5 1,-0.7 1.7,-0.7c0.7,0 1.2,0.2 1.6,0.7c0.4,0.4 0.6,1 0.6,1.7zm-1,0c0,-0.4 -0.1,-0.8 -0.3,-1.1c-0.2,-0.4 -0.5,-0.5 -0.9,-0.5c-0.4,0 -0.7,0.2 -0.9,0.5c-0.2,0.3 -0.3,0.7 -0.3,1.1c0,0.4 0.1,0.8 0.3,1.1c0.2,0.4 0.5,0.5 0.9,0.5c0.4,0 0.7,-0.2 0.9,-0.6c0.2,-0.2 0.3,-0.6 0.3,-1z" fill="#FFFFFF"/>
   <path id="svg_15" d="m58.491837,9l-1.4,4.6l-0.9,0l-0.6,-2c-0.2,-0.5 -0.3,-1 -0.4,-1.5l0,0c-0.1,0.5 -0.2,1 -0.4,1.5l-0.6,2l-0.9,0l-1.5,-4.6l1,0l0.5,2.2c0.1,0.5 0.2,1 0.3,1.5l0,0c0.1,-0.4 0.2,-0.9 0.4,-1.5l0.6,-2.2l0.8,0l0.6,2.1c0.2,0.5 0.3,1 0.4,1.5l0,0c0.1,-0.5 0.2,-1 0.3,-1.5l0.6,-2.1l1.2,0z" fill="#FFFFFF"/>
   <path id="svg_16" d="m63.691837,13.6l-1,0l0,-2.6c0,-0.8 -0.3,-1.2 -0.9,-1.2c-0.3,0 -0.5,0.1 -0.7,0.3c-0.2,0.2 -0.3,0.5 -0.3,0.8l0,2.7l-1,0l0,-3.3c0,-0.4 0,-0.8 0,-1.3l0.9,0l0,0.7l0,0c0.1,-0.2 0.3,-0.4 0.5,-0.6c0.3,-0.2 0.6,-0.3 0.9,-0.3c0.4,0 0.8,0.1 1.1,0.4c0.4,0.3 0.5,0.8 0.5,1.5l0,2.9z" fill="#FFFFFF"/>
   <path id="svg_17" d="m66.491837,13.6l-1,0l0,-6.7l1,0l0,6.7z" fill="#FFFFFF"/>
   <path id="svg_18" d="m72.491837,11.3c0,0.7 -0.2,1.3 -0.6,1.7c-0.4,0.5 -1,0.7 -1.7,0.7c-0.7,0 -1.2,-0.2 -1.6,-0.7c-0.4,-0.4 -0.6,-1 -0.6,-1.7c0,-0.7 0.2,-1.3 0.6,-1.7s1,-0.7 1.7,-0.7c0.7,0 1.2,0.2 1.6,0.7c0.4,0.4 0.6,1 0.6,1.7zm-1,0c0,-0.4 -0.1,-0.8 -0.3,-1.1c-0.2,-0.4 -0.5,-0.5 -0.9,-0.5c-0.4,0 -0.7,0.2 -0.9,0.5c-0.2,0.3 -0.3,0.7 -0.3,1.1c0,0.4 0.1,0.8 0.3,1.1c0.2,0.4 0.5,0.5 0.9,0.5c0.4,0 0.7,-0.2 0.9,-0.6c0.2,-0.2 0.3,-0.6 0.3,-1z" fill="#FFFFFF"/>
   <path id="svg_19" d="m77.391837,13.6l-0.9,0l-0.1,-0.5l0,0c-0.3,0.4 -0.8,0.6 -1.3,0.6c-0.4,0 -0.8,-0.1 -1,-0.4c-0.2,-0.3 -0.4,-0.6 -0.4,-0.9c0,-0.6 0.2,-1 0.7,-1.3c0.5,-0.3 1.1,-0.4 2,-0.4l0,-0.1c0,-0.6 -0.3,-0.9 -0.9,-0.9c-0.5,0 -0.8,0.1 -1.2,0.3l-0.2,-0.7c0.4,-0.3 0.9,-0.4 1.6,-0.4c1.2,0 1.8,0.6 1.8,1.9l0,1.7c-0.1,0.5 -0.1,0.8 -0.1,1.1zm-1,-1.6l0,-0.7c-1.1,0 -1.7,0.3 -1.7,0.9c0,0.2 0.1,0.4 0.2,0.5c0.1,0.1 0.3,0.2 0.5,0.2c0.2,0 0.4,-0.1 0.6,-0.2c0.2,-0.1 0.3,-0.3 0.4,-0.5c0,0 0,-0.1 0,-0.2z" fill="#FFFFFF"/>
   <path id="svg_20" d="m83.191837,13.6l-0.9,0l0,-0.7l0,0c-0.3,0.6 -0.8,0.8 -1.5,0.8c-0.6,0 -1,-0.2 -1.4,-0.6c-0.4,-0.4 -0.5,-1 -0.5,-1.7c0,-0.7 0.2,-1.3 0.6,-1.8c0.4,-0.4 0.9,-0.6 1.4,-0.6c0.6,0 1,0.2 1.3,0.6l0,0l0,-2.6l1,0l0,5.4c0,0.4 0,0.8 0,1.2zm-1,-1.9l0,-0.8c0,-0.1 0,-0.2 0,-0.3c-0.1,-0.2 -0.2,-0.4 -0.4,-0.6c-0.2,-0.2 -0.4,-0.2 -0.7,-0.2c-0.4,0 -0.7,0.2 -0.9,0.5c-0.2,0.3 -0.3,0.7 -0.3,1.2c0,0.5 0.1,0.8 0.3,1.1c0.2,0.3 0.5,0.5 0.9,0.5c0.3,0 0.6,-0.1 0.8,-0.4c0.2,-0.4 0.3,-0.7 0.3,-1z" fill="#FFFFFF"/>
   <path id="svg_21" d="m91.891837,11.3c0,0.7 -0.2,1.3 -0.6,1.7c-0.4,0.5 -1,0.7 -1.7,0.7c-0.7,0 -1.2,-0.2 -1.6,-0.7c-0.4,-0.4 -0.6,-1 -0.6,-1.7c0,-0.7 0.2,-1.3 0.6,-1.7c0.4,-0.5 1,-0.7 1.7,-0.7c0.7,0 1.2,0.2 1.6,0.7c0.4,0.4 0.6,1 0.6,1.7zm-1.1,0c0,-0.4 -0.1,-0.8 -0.3,-1.1c-0.2,-0.4 -0.5,-0.5 -0.9,-0.5c-0.4,0 -0.7,0.2 -0.9,0.5c-0.2,0.3 -0.3,0.7 -0.3,1.1c0,0.4 0.1,0.8 0.3,1.1c0.2,0.4 0.5,0.5 0.9,0.5c0.4,0 0.7,-0.2 0.9,-0.6c0.2,-0.2 0.3,-0.6 0.3,-1z" fill="#FFFFFF"/>
   <path id="svg_22" d="m97.391837,13.6l-1,0l0,-2.6c0,-0.8 -0.3,-1.2 -0.9,-1.2c-0.3,0 -0.5,0.1 -0.7,0.3c-0.2,0.2 -0.3,0.5 -0.3,0.8l0,2.7l-1,0l0,-3.3c0,-0.4 0,-0.8 0,-1.3l0.9,0l0,0.7l0,0c0.1,-0.2 0.3,-0.4 0.5,-0.6c0.3,-0.2 0.6,-0.3 0.9,-0.3c0.4,0 0.8,0.1 1.1,0.4c0.4,0.3 0.5,0.8 0.5,1.5l0,2.9z" fill="#FFFFFF"/>
   <path id="svg_23" d="m104.191837,9.8l-1.1,0l0,2.2c0,0.6 0.2,0.8 0.6,0.8c0.2,0 0.3,0 0.5,0l0,0.8c-0.2,0.1 -0.5,0.1 -0.8,0.1c-0.4,0 -0.7,-0.1 -0.9,-0.4c-0.2,-0.2 -0.3,-0.7 -0.3,-1.2l0,-2.3l-0.7,0l0,-0.8l0.7,0l0,-0.8l1,-0.3l0,1.1l1.1,0l0,0.8l-0.1,0z" fill="#FFFFFF"/>
   <path id="svg_24" d="m109.591837,13.6l-1,0l0,-2.6c0,-0.8 -0.3,-1.2 -0.9,-1.2c-0.5,0 -0.8,0.2 -1,0.7c0,0.1 0,0.2 0,0.4l0,2.7l-1,0l0,-6.7l1,0l0,2.8l0,0c0.3,-0.5 0.8,-0.8 1.4,-0.8c0.4,0 0.8,0.1 1,0.4c0.3,0.3 0.5,0.9 0.5,1.5l0,2.8z" fill="#FFFFFF"/>
   <path id="svg_25" d="m115.091837,11.1c0,0.2 0,0.3 0,0.5l-3,0c0,0.5 0.2,0.8 0.4,1c0.3,0.2 0.6,0.3 1,0.3c0.5,0 0.9,-0.1 1.2,-0.2l0.2,0.7c-0.4,0.2 -0.9,0.3 -1.5,0.3c-0.7,0 -1.3,-0.2 -1.7,-0.6c-0.4,-0.4 -0.6,-1 -0.6,-1.7c0,-0.7 0.2,-1.3 0.6,-1.7c0.4,-0.5 0.9,-0.7 1.6,-0.7c0.7,0 1.2,0.2 1.5,0.7c0.2,0.3 0.3,0.8 0.3,1.4zm-0.9,-0.3c0,-0.3 -0.1,-0.6 -0.2,-0.8c-0.2,-0.3 -0.4,-0.4 -0.8,-0.4c-0.3,0 -0.6,0.1 -0.8,0.4c-0.2,0.2 -0.3,0.5 -0.3,0.8l2.1,0z" fill="#FFFFFF"/>
  </g>
 </g>
</svg>