<svg width="128" height="40" xmlns="http://www.w3.org/2000/svg">
 <defs>
  <linearGradient y2="0.92156" x2="0.550941" y1="-0.060957" x1="0.295315" id="SVGID_1_">
   <stop stop-color="#006884" offset="0"/>
   <stop stop-color="#8AD1D0" offset="1"/>
  </linearGradient>
  <linearGradient y2="0.862504" x2="0.91537" y1="0.15759" x1="-0.07528" id="SVGID_2_">
   <stop stop-color="#24BBB6" offset="0"/>
   <stop stop-color="#DBE692" offset="1"/>
  </linearGradient>
  <linearGradient y2="-0.031274" x2="0.499404" y1="1.057548" x1="0.499404" id="SVGID_3_">
   <stop stop-color="#FCC072" offset="0"/>
   <stop stop-color="#F58A5B" offset="1"/>
  </linearGradient>
  <linearGradient y2="0.121026" x2="0.904369" y1="1.178371" x1="0.111494" id="SVGID_4_">
   <stop stop-color="#712B8F" offset="0"/>
   <stop stop-color="#EA1D27" offset="1"/>
  </linearGradient>
 </defs>
 <g>
  <title>background</title>
  <rect fill="none" id="canvas_background" height="42" width="130" y="-1" x="-1"/>
 </g>
 <g>
  <title>Layer 1</title>
  <g id="svg_1">
   <path id="svg_2" d="m124,40l-120,0c-2.2,0 -4,-1.8 -4,-4l0,-32c0,-2.2 1.8,-4 4,-4l120,0c2.2,0 4,1.8 4,4l0,32c0,2.2 -1.8,4 -4,4z"/>
   <path id="svg_3" d="m9.8,19.6l0,-10.5c0,-0.6 0.5,-1.1 1,-1.1c0.5,0 0.7,0.1 1,0.3l19.3,10.6c0.4,0.2 0.6,0.5 0.6,0.8c0,0.3 -0.2,0.6 -0.6,0.8l-19.3,10.6c-0.2,0.1 -0.5,0.3 -1,0.3c-0.5,0 -1,-0.5 -1,-1.1l0,-10.7z" fill="url(#SVGID_1_)" clip-rule="evenodd" fill-rule="evenodd"/>
   <path id="svg_4" d="m22.3,19.7l-11.7,-11.7c0.1,0 0.1,0 0.2,0c0.5,0 0.7,0.1 1,0.3l14.2,7.8l-3.7,3.6z" fill="url(#SVGID_2_)" clip-rule="evenodd" fill-rule="evenodd"/>
   <path id="svg_5" d="m25.9,23.2l-3.6,-3.6l3.7,-3.7l5.1,2.8c0.4,0.2 0.6,0.5 0.6,0.8c0,0.3 -0.2,0.6 -0.6,0.8l-5.2,2.9z" fill="url(#SVGID_3_)" clip-rule="evenodd" fill-rule="evenodd"/>
   <path id="svg_6" d="m10.7,31.2l0,0l11.6,-11.6l3.6,3.6l-14.1,7.7c-0.3,0.2 -0.5,0.3 -1.1,0.3c0.1,0 0.1,0 0,0z" fill="url(#SVGID_4_)" clip-rule="evenodd" fill-rule="evenodd"/>
   <path id="svg_7" d="m71.1,33.9c-0.5,-0.4 -0.9,-1.1 -1.1,-1.5l1.6,-0.7c0.1,0.2 0.3,0.5 0.5,0.8c0.4,0.4 1,0.8 1.6,0.8c0.6,0 1.3,-0.3 1.7,-0.8c0.3,-0.5 0.5,-1 0.5,-1.7l0,-0.6c-1.2,1.5 -3.7,1.3 -5.1,-0.3c-1.5,-1.6 -1.5,-4.3 0,-5.9c1.5,-1.5 3.7,-1.7 5,-0.3c0,0 0,0 0,0l0,-0.7l1.7,0l0,7.5c0,1.9 -0.7,3 -1.6,3.7c-0.6,0.5 -1.5,0.7 -2.3,0.7c-0.9,-0.1 -1.8,-0.4 -2.5,-1l0,0zm41.9,0.4l0,0l1.7,-4l-3,-6.9l1.7,0l2.1,4.9l2.1,-4.9l1.7,0l-4.6,10.9l-1.7,0l0,0zm-8.1,-3.8l0,0c-0.5,-0.5 -0.7,-1.2 -0.7,-1.9c0,-0.6 0.2,-1.2 0.6,-1.6c0.7,-0.7 1.7,-1 2.8,-1c0.7,0 1.3,0.1 1.8,0.4c0,-1.2 -1,-1.7 -1.8,-1.7c-0.7,0 -1.4,0.4 -1.7,1.1l-1.5,-0.6c0.3,-0.7 1.1,-2 3.1,-2c1,0 2,0.3 2.6,1c0.6,0.7 0.8,1.5 0.8,2.6l0,4.2l-1.7,0l0,-0.7c-0.2,0.3 -0.6,0.5 -0.9,0.7c-0.4,0.2 -0.9,0.3 -1.4,0.3c-0.6,-0.1 -1.5,-0.3 -2,-0.8l0,0zm-53.3,-3.6l0,0c0,-2 1.5,-4.2 4.2,-4.2c2.6,0 4.2,2.2 4.2,4.2c0,2 -1.5,4.2 -4.2,4.2c-2.7,0 -4.2,-2.2 -4.2,-4.2l0,0zm9,0l0,0c0,-2 1.5,-4.2 4.2,-4.2c2.6,0 4.2,2.2 4.2,4.2c0,2 -1.5,4.2 -4.2,4.2c-2.6,0 -4.2,-2.2 -4.2,-4.2l0,0zm-20.3,2.2l0,0c-2.5,-2.5 -2.4,-6.6 0.1,-9.2c1.3,-1.3 2.9,-1.9 4.6,-1.9c1.6,0 3.2,0.6 4.4,1.8l-1.2,1.3c-1.8,-1.8 -4.7,-1.7 -6.4,0.1c-1.8,1.9 -1.8,4.8 0,6.7c1.8,1.9 4.8,2 6.6,0.1c0.6,-0.6 0.8,-1.4 0.9,-2.2l-4.2,0l0,-1.8l5.9,0c0.1,0.4 0.1,0.9 0.1,1.4c0,1.5 -0.6,3 -1.6,4c-1.1,1.1 -2.7,1.7 -4.3,1.7c-1.8,-0.1 -3.6,-0.7 -4.9,-2l0,0zm42.3,0.7l0,0c-1.5,-1.6 -1.5,-4.3 0,-6c1.5,-1.6 4,-1.6 5.4,0c0.5,0.5 0.8,1.2 1.1,1.9l-5.5,2.3c0.3,0.7 1,1.3 2,1.3c0.9,0 1.5,-0.3 2.1,-1.2l1.5,1l0,0c-0.2,0.2 -0.4,0.4 -0.5,0.6c-1.7,1.7 -4.6,1.7 -6.1,0.1l0,0zm10.4,1.2l0,0l0,-11.1l3.6,0c2.1,0 3.8,1.5 3.8,3.3c0,1.8 -1.5,3.3 -3.4,3.3l-2.2,0l0,4.4l-1.8,0l0,0.1zm8.4,0l0,0l0,-11.1l1.7,0l0,11.1l-1.7,0l0,0zm-22.6,-0.2l0,0l0,-12.4l1.8,0l0,12.4l-1.8,0l0,0zm30.5,-3.1l0,0c-0.4,-0.3 -1,-0.4 -1.6,-0.4c-1.2,0 -1.9,0.6 -1.9,1.3c0,0.7 0.7,1.1 1.4,1.1c1,0 2.1,-0.8 2.1,-2l0,0zm-51.2,-0.8l0,0c0,-1.2 -0.8,-2.5 -2.3,-2.5c-1.5,0 -2.3,1.3 -2.3,2.5c0,1.2 0.8,2.5 2.3,2.5c1.4,0 2.3,-1.3 2.3,-2.5l0,0zm9,0l0,0c0,-1.2 -0.8,-2.5 -2.3,-2.5c-1.5,0 -2.3,1.3 -2.3,2.5c0,1.2 0.8,2.5 2.3,2.5c1.5,0 2.3,-1.3 2.3,-2.5l0,0zm8.9,0.7l0,0c0,-0.1 0,-0.2 0.1,-0.3c0,0 0,0 0,0c0,-0.1 0,-0.3 0,-0.4c0,-0.1 0,-0.3 0,-0.4c0,0 0,-0.1 0,-0.1c0,-0.1 -0.1,-0.3 -0.1,-0.4c-0.3,-1 -1.2,-1.7 -2.1,-1.7c-1.2,0 -2.2,1.2 -2.2,2.5c0,1.4 1,2.5 2.3,2.5c0.8,0.1 1.6,-0.6 2,-1.7l0,0zm7.3,-0.9l0,0l3.7,-1.6c-0.4,-0.7 -1,-0.9 -1.5,-0.9c-1.5,0.1 -2.4,1.7 -2.2,2.5l0,0zm15.3,-3.4l0,0c0,-1 -0.8,-1.7 -1.9,-1.7l-2,0l0,3.5l2.1,0c1,0 1.8,-0.8 1.8,-1.8z" fill="#FFFFFF" clip-rule="evenodd" fill-rule="evenodd"/>
   <polygon id="svg_8" points="114.29998779296875,32.29999923706055 114.29998779296875,32.29999923706055 114.20001220703125,32.29999923706055 114.20001220703125,32.29999923706055 114.20001220703125,32.20000076293945 114.20001220703125,32.20000076293945 114.29998779296875,32.20000076293945 114.29998779296875,32.20000076293945 114.20001220703125,32.20000076293945 114.20001220703125,32.20000076293945 114.20001220703125,32.29999923706055 114.20001220703125,32.29999923706055 " fill="#FFFFFF" clip-rule="evenodd" fill-rule="evenodd"/>
   <path id="svg_9" d="m114.3,32.3l0,0c0,-0.1 0,-0.1 0,0l0,0c0,-0.1 0,-0.1 0,0l0,0l0,0l0,0l0,0l0,0l0,0l0,0l0,0zm0,-0.1l0,0c0,0 0,0 0,0l0,0l0,0l0,0c0,0 0,0 0,0l0,0z" fill="#FFFFFF" clip-rule="evenodd" fill-rule="evenodd"/>
   <polygon id="svg_10" points="114.29998779296875,32.29999923706055 114.29998779296875,32.29999923706055 114.29998779296875,32.20000076293945 114.29998779296875,32.20000076293945 114.29998779296875,32.20000076293945 114.29998779296875,32.20000076293945 114.29998779296875,32.20000076293945 114.29998779296875,32.20000076293945 114.29998779296875,32.20000076293945 114.29998779296875,32.20000076293945 114.29998779296875,32.29999923706055 114.29998779296875,32.29999923706055 " fill="#FFFFFF" clip-rule="evenodd" fill-rule="evenodd"/>
   <path id="svg_11" d="m114.3,32.3l0,0l0,0l0,0l0,0l0,0l0,0l0,0l0,0l0,0zm0,-0.1l0,0l0,0l0,0c0,0 0,0 0,0c0,0 0,0 0,0l0,0z" fill="#FFFFFF" clip-rule="evenodd" fill-rule="evenodd"/>
   <polygon id="svg_12" points="114.29998779296875,32.20000076293945 114.29998779296875,32.20000076293945 114.29998779296875,32.20000076293945 114.29998779296875,32.20000076293945 114.29998779296875,32.29999923706055 114.29998779296875,32.29999923706055 114.29998779296875,32.20000076293945 114.29998779296875,32.20000076293945 " fill="#FFFFFF" clip-rule="evenodd" fill-rule="evenodd"/>
   <polygon id="svg_13" points="114.29998779296875,32.29999923706055 114.29998779296875,32.29999923706055 114.29998779296875,32.20000076293945 114.29998779296875,32.20000076293945 114.29998779296875,32.20000076293945 114.29998779296875,32.20000076293945 114.29998779296875,32.20000076293945 114.29998779296875,32.20000076293945 114.29998779296875,32.20000076293945 114.29998779296875,32.20000076293945 114.29998779296875,32.29999923706055 114.29998779296875,32.29999923706055 " fill="#FFFFFF" clip-rule="evenodd" fill-rule="evenodd"/>
   <path id="svg_14" d="m114.3,32.3l0,0c0,-0.1 0,-0.1 0,0l0,0l0,0l0,0c0,0 0,0 0,0l0,0zm0,0l0,0c0,0 0,0 0,0l0,0l0,0l0,0c0,-0.1 0,-0.1 0,0l0,0z" fill="#FFFFFF" clip-rule="evenodd" fill-rule="evenodd"/>
   <path id="svg_15" d="m114.4,32.3l0,0c0,-0.1 0,-0.1 0,0c0,-0.1 0,-0.1 0,0l0,0c0,-0.1 0,-0.1 0,0l0,0l0,0l0,0c0,0 0,0 0,0l0,0zm0,-0.1l0,0c0,0 0,0 0,0l0,0l0,0l0,0c0,0 0,0 0,0l0,0l0,0zm0,0.1l0,0c0,0 0,0 0,0l0,0l0,0l0,0c0,-0.1 0,-0.1 0,0l0,0z" fill="#FFFFFF" clip-rule="evenodd" fill-rule="evenodd"/>
   <polygon id="svg_16" points="114.39999389648438,32.20000076293945 114.39999389648438,32.20000076293945 114.39999389648438,32.20000076293945 114.39999389648438,32.20000076293945 114.39999389648438,32.20000076293945 114.39999389648438,32.20000076293945 114.39999389648438,32.20000076293945 114.39999389648438,32.20000076293945 114.39999389648438,32.29999923706055 114.39999389648438,32.29999923706055 114.39999389648438,32.20000076293945 " fill="#FFFFFF" clip-rule="evenodd" fill-rule="evenodd"/>
   <polygon id="svg_17" points="114.39999389648438,32.29999923706055 114.39999389648438,32.29999923706055 114.39999389648438,32.20000076293945 114.39999389648438,32.20000076293945 114.39999389648438,32.29999923706055 114.39999389648438,32.29999923706055 " fill="#FFFFFF" clip-rule="evenodd" fill-rule="evenodd"/>
   <path id="svg_18" d="m114.4,32.3l0,0c0,-0.1 0,-0.1 0,0c0,-0.1 0,-0.1 0,0l0,0c0,0 0,0 0,0c0,0 0,0 0,0l0,0zm0,-0.1l0,0c0,0.1 0,0.1 0,0c0,0.1 0,0.1 0,0l0,0c0,0 0,0 0,0c0,0 0,0 0,0l0,0z" fill="#FFFFFF" clip-rule="evenodd" fill-rule="evenodd"/>
   <path id="svg_19" d="m114.4,32.3l0,0l0,0l0,0l0,0l0,0c0,0 0,0 0,0c0,0 0,0 0,0l0,0c0,-0.1 0,-0.1 0,0c0,-0.1 0,-0.1 0,0l0,0c0,-0.1 0,-0.1 0,0c0,-0.1 0,-0.1 0,0l0,0c0,0 0,0 0,0c0,0 0,0 0,0l0,0z" fill="#FFFFFF" clip-rule="evenodd" fill-rule="evenodd"/>
   <path id="svg_20" d="m114.5,32.3l0,0c0,-0.1 0,-0.1 0,0c-0.1,-0.1 -0.1,-0.1 0,0l0,0c-0.1,0 -0.1,0 0,0c0,0 0,0 0,0l0,0zm0,-0.1l0,0c0,0.1 0,0.1 0,0c0,0.1 -0.1,0.1 0,0l0,0c-0.1,0 0,0 0,0c0,0 0,0 0,0l0,0z" fill="#FFFFFF" clip-rule="evenodd" fill-rule="evenodd"/>
   <polygon id="svg_21" points="114.5,32.29999923706055 114.5,32.20000076293945 114.5,32.20000076293945 114.5,32.20000076293945 114.5,32.20000076293945 114.5,32.20000076293945 114.5,32.29999923706055 114.5,32.29999923706055 114.5,32.20000076293945 114.5,32.20000076293945 114.5,32.29999923706055 114.5,32.29999923706055 114.5,32.20000076293945 114.5,32.20000076293945 114.5,32.29999923706055 " fill="#FFFFFF" clip-rule="evenodd" fill-rule="evenodd"/>
   <path id="svg_22" d="m114.5,32.3l0,0l0,0l0,0l0,0l0,0l0,0l0,0l0,0l0,0zm0,-0.1l0,0l0,0l0,0c0,0 0,0 0,0c0,0 0,0 0,0l0,0z" fill="#FFFFFF" clip-rule="evenodd" fill-rule="evenodd"/>
   <path id="svg_23" d="m114.5,32.3c0,-0.1 0,-0.1 0,0c0,-0.1 0,-0.1 0,0c0,-0.1 0,-0.1 0,0c0,-0.1 0,-0.1 0,0l0,0c0,-0.1 0,-0.1 0,0c0,-0.1 0,-0.1 0,0c0,-0.1 0,-0.1 0,0c0,-0.1 0,-0.1 0,0c0,0 0,0 0,0c0,0 0,0 0,0l0,0c0,0 0,0 0,0c0,0 0,0 0,0z" fill="#FFFFFF" clip-rule="evenodd" fill-rule="evenodd"/>
   <polygon id="svg_24" points="114.60000610351562,32.20000076293945 114.5,32.20000076293945 114.5,32.20000076293945 114.60000610351562,32.20000076293945 114.60000610351562,32.29999923706055 114.60000610351562,32.29999923706055 114.60000610351562,32.20000076293945 114.60000610351562,32.20000076293945 " fill="#FFFFFF" clip-rule="evenodd" fill-rule="evenodd"/>
   <polygon id="svg_25" points="114.60000610351562,32.29999923706055 114.60000610351562,32.29999923706055 114.60000610351562,32.20000076293945 114.60000610351562,32.20000076293945 114.60000610351562,32.20000076293945 114.60000610351562,32.20000076293945 114.60000610351562,32.20000076293945 114.60000610351562,32.20000076293945 114.60000610351562,32.20000076293945 114.60000610351562,32.20000076293945 114.60000610351562,32.29999923706055 114.60000610351562,32.29999923706055 " fill="#FFFFFF" clip-rule="evenodd" fill-rule="evenodd"/>
   <path id="svg_26" d="m114.6,32.3l0,0c0,-0.1 0,-0.1 0,0l0,0c0,-0.1 0,-0.1 0,0l0,0l0,0l0,0l0,0l0,0l0,0l0,0l0,0zm0,-0.1l0,0c0,0 0,0 0,0l0,0l0,0l0,0c0,0 0,0 0,0l0,0z" fill="#FFFFFF" clip-rule="evenodd" fill-rule="evenodd"/>
   <path id="svg_27" d="m38.9,10.1c0,-1.8 1.3,-2.9 2.9,-2.9c1.1,0 1.8,0.5 2.3,1.2l-0.8,0.5c-0.3,-0.4 -0.8,-0.7 -1.5,-0.7c-1.1,0 -1.9,0.8 -1.9,2c0,1.2 0.8,2 1.9,2c0.6,0 1.1,-0.3 1.3,-0.5l0,-0.9l-1.6,0l0,-0.9l2.7,0l0,2.1c-0.5,0.6 -1.3,1 -2.3,1c-1.7,0 -3,-1.2 -3,-2.9z" fill="#FFFFFF"/>
   <path id="svg_28" d="m45.4,12.9l0,-5.6l3.8,0l0,0.9l-2.9,0l0,1.4l2.8,0l0,0.9l-2.8,0l0,1.6l2.9,0l0,0.9l-3.8,-0.1l0,0z" fill="#FFFFFF"/>
   <path id="svg_29" d="m52,12.9l0,-4.7l-1.7,0l0,-0.9l4.4,0l0,0.9l-1.7,0l0,4.7l-1,0z" fill="#FFFFFF"/>
   <path id="svg_30" d="m58.1,12.9l0,-5.6l1,0l0,5.6c0,0 -1,0 -1,0z" fill="#FFFFFF"/>
   <path id="svg_31" d="m61.8,12.9l0,-4.7l-1.7,0l0,-0.9l4.4,0l0,0.9l-1.7,0l0,4.7l-1,0z" fill="#FFFFFF"/>
   <path id="svg_32" d="m67.7,10.1c0,-1.7 1.2,-2.9 2.9,-2.9c1.7,0 2.9,1.2 2.9,2.9s-1.2,2.9 -2.9,2.9c-1.7,0 -2.9,-1.3 -2.9,-2.9zm4.7,0c0,-1.2 -0.7,-2 -1.9,-2c-1.1,0 -1.9,0.9 -1.9,2c0,1.2 0.7,2 1.9,2c1.2,0 1.9,-0.9 1.9,-2z" fill="#FFFFFF"/>
   <path id="svg_33" d="m78.5,12.9l-2.9,-4l0,4l-1,0l0,-5.6l1,0l2.9,3.9l0,-3.9l1,0l0,5.6l-1,0z" fill="#FFFFFF"/>
  </g>
 </g>
</svg>